<svg width="61" height="54" viewBox="0 0 61 54" fill="none" xmlns="http://www.w3.org/2000/svg">
<rect width="61" height="54" fill="white"/>
<path d="M42.4756 29.1533C42.4756 35.387 41.4502 40.0013 39.3994 42.9961C37.3649 45.9909 34.2236 47.4883 29.9756 47.4883C25.8577 47.4883 22.749 45.9421 20.6494 42.8496C18.5661 39.7572 17.5244 35.1917 17.5244 29.1533C17.5244 22.8545 18.5417 18.2158 20.5762 15.2373C22.6107 12.2425 25.7438 10.7451 29.9756 10.7451C34.0934 10.7451 37.2021 12.3076 39.3018 15.4326C41.4176 18.5576 42.4756 23.1312 42.4756 29.1533ZM25.0195 29.1533C25.0195 33.5316 25.3939 36.6729 26.1426 38.5771C26.9076 40.4652 28.1852 41.4092 29.9756 41.4092C31.7334 41.4092 33.0029 40.4489 33.7842 38.5283C34.5654 36.6077 34.9561 33.4827 34.9561 29.1533C34.9561 24.7751 34.5573 21.6338 33.7598 19.7295C32.9785 17.8089 31.7171 16.8486 29.9756 16.8486C28.2015 16.8486 26.932 17.8089 26.167 19.7295C25.402 21.6338 25.0195 24.7751 25.0195 29.1533Z" fill="#323232"/>
</svg>
