<svg width="26" height="34" viewBox="0 0 26 34" fill="none" xmlns="http://www.w3.org/2000/svg">
<path d="M15.9883 33.5859C11.0859 33.5859 7.35547 32.1602 4.79688 29.3086C2.25781 26.4375 0.988281 22.3262 0.988281 16.9746C0.988281 11.5254 2.31641 7.33594 4.97266 4.40625C7.64844 1.47656 11.5059 0.0117188 16.5449 0.0117188C19.9629 0.0117188 23.0391 0.646484 25.7734 1.91602L23.6934 7.45312C20.7832 6.32031 18.3809 5.75391 16.4863 5.75391C10.8809 5.75391 8.07812 9.47461 8.07812 16.916C8.07812 20.5488 8.77148 23.2832 10.1582 25.1191C11.5645 26.9355 13.6152 27.8438 16.3105 27.8438C19.377 27.8438 22.2773 27.082 25.0117 25.5586V31.5645C23.7812 32.2871 22.4629 32.8047 21.0566 33.1172C19.6699 33.4297 17.9805 33.5859 15.9883 33.5859Z" fill="#323232"/>
</svg>
