<svg width="26" height="29" viewBox="0 0 26 29" fill="none" xmlns="http://www.w3.org/2000/svg">
<path d="M24.904 15.99C25.0488 16.2105 25.1006 16.4792 25.0481 16.7376C24.9957 16.9961 24.8433 17.2234 24.624 17.37L22.244 18.94L24.304 20.13C24.5348 20.2626 24.7034 20.4814 24.7728 20.7384C24.8422 20.9953 24.8067 21.2693 24.674 21.5C24.5414 21.7307 24.3226 21.8993 24.0657 21.9687C23.8087 22.0381 23.5348 22.0026 23.304 21.87L21.244 20.68L21.064 23.5C21.0487 23.7547 20.9367 23.9939 20.7508 24.1686C20.5649 24.3434 20.3192 24.4405 20.064 24.44H20.004C19.8726 24.4324 19.744 24.3988 19.6256 24.3414C19.5072 24.2839 19.4013 24.2037 19.314 24.1052C19.2266 24.0067 19.1596 23.8919 19.1167 23.7675C19.0738 23.6431 19.0559 23.5114 19.064 23.38L19.294 19.54L13.544 16.23V22.88L16.994 24.61C17.2296 24.7299 17.4081 24.9381 17.4905 25.1892C17.573 25.4403 17.5527 25.7138 17.434 25.95C17.3509 26.1149 17.2238 26.2536 17.0667 26.3507C16.9096 26.4478 16.7287 26.4994 16.544 26.5C16.3872 26.5019 16.2324 26.464 16.094 26.39L13.544 25.12V27.5C13.544 27.7652 13.4387 28.0196 13.2512 28.2071C13.0636 28.3946 12.8093 28.5 12.544 28.5C12.2788 28.5 12.0245 28.3946 11.8369 28.2071C11.6494 28.0196 11.544 27.7652 11.544 27.5V25.12L8.99404 26.39C8.87622 26.4609 8.74503 26.5067 8.60869 26.5246C8.47235 26.5426 8.33378 26.5321 8.20164 26.4941C8.0695 26.456 7.94663 26.3911 7.84071 26.3034C7.73479 26.2157 7.6481 26.1071 7.58605 25.9844C7.524 25.8617 7.48793 25.7275 7.48009 25.5902C7.47225 25.4529 7.49281 25.3155 7.54049 25.1865C7.58816 25.0575 7.66193 24.9397 7.75717 24.8405C7.85242 24.7413 7.9671 24.6629 8.09404 24.61L11.544 22.88V16.23L5.78404 19.56L6.01404 23.4C6.02777 23.5346 6.01406 23.6705 5.97374 23.7996C5.93341 23.9287 5.86731 24.0483 5.77944 24.1512C5.69157 24.254 5.58375 24.3379 5.4625 24.3979C5.34125 24.4578 5.2091 24.4926 5.07404 24.5H5.01404C4.7589 24.5005 4.51324 24.4034 4.32733 24.2286C4.14143 24.0539 4.02935 23.8147 4.01404 23.56L3.84404 20.68L1.78404 21.87C1.63164 21.9564 1.45922 22.0012 1.28404 22C1.06263 22.0015 0.846958 21.9296 0.670857 21.7953C0.494756 21.6611 0.368184 21.4722 0.310989 21.2583C0.253795 21.0444 0.269212 20.8176 0.354824 20.6134C0.440436 20.4092 0.591401 20.2392 0.784044 20.13L2.84404 18.94L0.464044 17.37C0.272046 17.2148 0.144272 16.994 0.105328 16.7501C0.0663833 16.5063 0.119021 16.2567 0.253106 16.0494C0.387191 15.842 0.593241 15.6916 0.831581 15.6271C1.06992 15.5626 1.3237 15.5886 1.54404 15.7L4.76404 17.82L10.544 14.5L4.78404 11.18L1.54404 13.3C1.38023 13.4058 1.18906 13.4614 0.994044 13.46C0.829337 13.4591 0.66739 13.4176 0.522593 13.3391C0.377796 13.2606 0.254632 13.1476 0.164044 13.01C0.0193131 12.7895 -0.0324679 12.5208 0.0199733 12.2624C0.0724145 12.0039 0.224832 11.7766 0.444044 11.63L2.84404 10.06L0.784044 8.87C0.553305 8.73739 0.384696 8.51855 0.315308 8.26163C0.245919 8.0047 0.281436 7.73074 0.414044 7.5C0.546652 7.26926 0.76549 7.10065 1.02241 7.03126C1.27934 6.96187 1.55331 6.99739 1.78404 7.13L3.84404 8.32L4.02404 5.5C4.03935 5.24532 4.15143 5.00612 4.33733 4.83137C4.52324 4.65662 4.7689 4.55954 5.02404 4.56C5.15796 4.56123 5.29026 4.58935 5.4131 4.64268C5.53594 4.69602 5.64682 4.77348 5.73915 4.87048C5.83148 4.96747 5.9034 5.08203 5.95062 5.20735C5.99784 5.33266 6.01941 5.46619 6.01404 5.6L5.78404 9.44L11.544 12.77V6.12L8.09404 4.39C7.8777 4.25982 7.7186 4.05261 7.6487 3.80999C7.57881 3.56736 7.60328 3.30727 7.71721 3.08194C7.83114 2.85661 8.0261 2.68272 8.26293 2.59518C8.49977 2.50764 8.76095 2.51294 8.99404 2.61L11.544 3.88V1.5C11.544 1.23478 11.6494 0.98043 11.8369 0.792893C12.0245 0.605357 12.2788 0.5 12.544 0.5C12.8093 0.5 13.0636 0.605357 13.2512 0.792893C13.4387 0.98043 13.544 1.23478 13.544 1.5V3.88L16.094 2.61C16.2119 2.5391 16.3431 2.49327 16.4794 2.47536C16.6157 2.45745 16.7543 2.46785 16.8864 2.50592C17.0186 2.54399 17.1415 2.6089 17.2474 2.6966C17.3533 2.7843 17.44 2.8929 17.502 3.01562C17.5641 3.13834 17.6002 3.27254 17.608 3.40983C17.6158 3.54712 17.5953 3.68455 17.5476 3.81353C17.4999 3.94252 17.4262 4.06028 17.3309 4.15947C17.2357 4.25866 17.121 4.33714 16.994 4.39L13.544 6.12V12.77L19.304 9.44L19.074 5.6C19.0603 5.46544 19.074 5.32949 19.1144 5.20037C19.1547 5.07126 19.2208 4.95167 19.3086 4.84884C19.3965 4.74601 19.5043 4.66208 19.6256 4.60212C19.7468 4.54216 19.879 4.50742 20.014 4.5C20.1495 4.49322 20.2849 4.51407 20.4121 4.56128C20.5393 4.60848 20.6555 4.68107 20.7537 4.77461C20.8519 4.86815 20.9301 4.9807 20.9834 5.1054C21.0368 5.23011 21.0642 5.36436 21.064 5.5L21.244 8.34L23.304 7.15C23.4183 7.08434 23.5444 7.04182 23.675 7.02488C23.8057 7.00794 23.9385 7.01691 24.0657 7.05126C24.1929 7.08562 24.3121 7.1447 24.4165 7.22513C24.5209 7.30555 24.6084 7.40575 24.674 7.52C24.7397 7.63425 24.7822 7.76031 24.7992 7.891C24.8161 8.02168 24.8071 8.15441 24.7728 8.28163C24.7384 8.40885 24.6793 8.52805 24.5989 8.63243C24.5185 8.73682 24.4183 8.82434 24.304 8.89L22.244 10.06L24.624 11.63C24.8433 11.7766 24.9957 12.0039 25.0481 12.2624C25.1006 12.5208 25.0488 12.7895 24.904 13.01C24.8135 13.1476 24.6903 13.2606 24.5455 13.3391C24.4007 13.4176 24.2388 13.4591 24.074 13.46C23.8858 13.4576 23.7021 13.4021 23.544 13.3L20.324 11.18L14.544 14.5L20.304 17.82L23.544 15.7C23.7641 15.5624 24.0289 15.5158 24.2827 15.5699C24.5365 15.624 24.7593 15.7747 24.904 15.99Z" fill="black"/>
</svg>
