<svg width="26" height="37" viewBox="0 0 26 37" fill="none" xmlns="http://www.w3.org/2000/svg">
<path d="M25.4756 18.6533C25.4756 24.887 24.4502 29.5013 22.3994 32.4961C20.3649 35.4909 17.2236 36.9883 12.9756 36.9883C8.85775 36.9883 5.74902 35.4421 3.64941 32.3496C1.56608 29.2572 0.524414 24.6917 0.524414 18.6533C0.524414 12.3545 1.54167 7.71582 3.57617 4.7373C5.61068 1.74251 8.74382 0.245117 12.9756 0.245117C17.0934 0.245117 20.2021 1.80762 22.3018 4.93262C24.4176 8.05762 25.4756 12.6312 25.4756 18.6533ZM8.01953 18.6533C8.01953 23.0316 8.39388 26.1729 9.14258 28.0771C9.90755 29.9652 11.1852 30.9092 12.9756 30.9092C14.7334 30.9092 16.0029 29.9489 16.7842 28.0283C17.5654 26.1077 17.9561 22.9827 17.9561 18.6533C17.9561 14.2751 17.5573 11.1338 16.7598 9.22949C15.9785 7.30892 14.7171 6.34863 12.9756 6.34863C11.2015 6.34863 9.93197 7.30892 9.16699 9.22949C8.40202 11.1338 8.01953 14.2751 8.01953 18.6533Z" fill="#323232"/>
</svg>
