<svg width="31" height="31" viewBox="0 0 31 31" fill="none" xmlns="http://www.w3.org/2000/svg">
<circle r="14.5" transform="matrix(-1 0 0 1 15.5 15.5)" stroke="black" stroke-width="2"/>
<path d="M14.2929 6.48625C14.6834 6.09573 15.3166 6.09573 15.7071 6.48625L22.0711 12.8502C22.4616 13.2407 22.4616 13.8739 22.0711 14.2644C21.6805 14.655 21.0474 14.655 20.6569 14.2644L15 8.60757L9.34315 14.2644C8.95262 14.655 8.31946 14.655 7.92893 14.2644C7.53841 13.8739 7.53841 13.2407 7.92893 12.8502L14.2929 6.48625ZM14 24.1934L14 7.19336H16V24.1934H14Z" fill="#323232"/>
<circle cx="15.5" cy="15.5" r="11.5" transform="rotate(-180 15.5 15.5)" stroke="black" stroke-width="2"/>
</svg>
